<svg xmlns="http://www.w3.org/2000/svg" viewBox="0 0 256 256" role="img" aria-label="3D tropical island">
<defs>
  <linearGradient id="water" x1="0" y1="0" x2="0" y2="1"><stop offset="0" stop-color="#63ecff"/><stop offset=".5" stop-color="#12c7e6"/><stop offset="1" stop-color="#079abf"/></linearGradient>
  <linearGradient id="waterSide" x1="0" y1="0" x2="0" y2="1"><stop offset="0" stop-color="#18b9d8"/><stop offset="1" stop-color="#05799a"/></linearGradient>
  <radialGradient id="sand" cx=".38" cy=".28" r=".8"><stop offset="0" stop-color="#fff1ad"/><stop offset=".65" stop-color="#f8cf73"/><stop offset="1" stop-color="#e5a84b"/></radialGradient>
  <linearGradient id="trunk" x1="0" y1="0" x2="1" y2="1"><stop offset="0" stop-color="#f6a65c"/><stop offset=".55" stop-color="#c96d30"/><stop offset="1" stop-color="#8b421f"/></linearGradient>
  <linearGradient id="leaf" x1="0" y1="0" x2="1" y2="1"><stop offset="0" stop-color="#d7ff67"/><stop offset=".4" stop-color="#71db3f"/><stop offset="1" stop-color="#19934a"/></linearGradient>
  <linearGradient id="rock" x1="0" y1="0" x2="1" y2="1"><stop offset="0" stop-color="#c7c2c9"/><stop offset=".55" stop-color="#83798d"/><stop offset="1" stop-color="#51475b"/></linearGradient>
  <linearGradient id="wood" x1="0" y1="0" x2="0" y2="1"><stop offset="0" stop-color="#f5a44f"/><stop offset=".5" stop-color="#c86d2d"/><stop offset="1" stop-color="#7f3b19"/></linearGradient>
  <filter id="shadow" x="-30%" y="-30%" width="160%" height="180%"><feDropShadow dx="0" dy="7" stdDeviation="5" flood-color="#17324d" flood-opacity=".28"/></filter>
  <filter id="soft" x="-30%" y="-30%" width="160%" height="160%"><feGaussianBlur stdDeviation="2.2"/></filter>
</defs>
<g filter="url(#shadow)">
  <path d="M25 168c3-31 24-52 55-63 30-11 74-13 107-2 29 10 46 31 45 60-1 31-27 52-59 63-39 13-92 11-123-5-18-9-27-26-25-53z" fill="url(#waterSide)"/>
  <ellipse cx="128" cy="158" rx="104" ry="67" fill="url(#water)"/>
  <ellipse cx="128" cy="152" rx="92" ry="56" fill="none" stroke="#d9fbff" stroke-width="4" opacity=".9"/>
  <path d="M61 154c5-22 25-39 50-47 31-10 65-5 83 12 15 14 14 34-2 49-20 19-55 28-87 24-28-3-49-17-44-38z" fill="url(#sand)"/>
  <path d="M63 151c8-19 28-33 51-40 29-8 58-4 76 10" fill="none" stroke="#fff7d7" stroke-width="5" stroke-linecap="round" opacity=".85"/>
  <ellipse cx="118" cy="214" rx="72" ry="7" fill="#0b6781" opacity=".18" filter="url(#soft)"/>

  <g>
    <path d="M109 141c7-20 9-42 2-66" fill="none" stroke="url(#trunk)" stroke-width="15" stroke-linecap="round"/>
    <path d="M111 141c2-15 4-30 2-44" fill="none" stroke="#f8b06c" stroke-width="3" stroke-linecap="round" opacity=".55"/>
    <path d="M104 79c-21-5-34 0-47 12 16 1 30 2 43 11-13-17-26-23-44-22 15-11 31-17 49-12-5-17-1-30 8-42 8 15 11 29 4 43 16-12 33-16 50-10-17 6-31 15-42 28 19-3 35 2 48 15-18-2-33 0-48 8-2-13-7-22-21-31z" fill="url(#leaf)"/>
    <path d="M105 78c-12-7-22-18-28-30 13 7 23 15 31 27" fill="none" stroke="#e8ff90" stroke-width="3" opacity=".55"/>
  </g>

  <g transform="translate(-28 23) scale(.76)">
    <path d="M109 141c7-20 9-42 2-66" fill="none" stroke="url(#trunk)" stroke-width="15" stroke-linecap="round"/>
    <path d="M104 79c-21-5-34 0-47 12 16 1 30 2 43 11-13-17-26-23-44-22 15-11 31-17 49-12-5-17-1-30 8-42 8 15 11 29 4 43 16-12 33-16 50-10-17 6-31 15-42 28 19-3 35 2 48 15-18-2-33 0-48 8-2-13-7-22-21-31z" fill="url(#leaf)"/>
  </g>

  <g>
    <path d="M157 129c8-15 19-24 34-25 9 7 13 17 11 31-15 4-30 3-45-6z" fill="url(#rock)"/>
    <path d="M164 133c6-10 14-15 24-15 7 5 9 12 8 21-11 2-22 1-32-6z" fill="#a99eab" opacity=".8"/>
    <path d="M75 166c5-9 12-13 21-13 7 4 10 9 10 17-12 4-22 3-31-4z" fill="url(#rock)"/>
    <path d="M97 181c4-7 9-10 16-10 5 3 7 7 7 13-9 3-16 2-23-3z" fill="#8f8496"/>
  </g>

  <g transform="translate(142 156)">
    <rect x="0" y="8" width="62" height="13" rx="4" fill="url(#wood)" transform="rotate(8 31 14)"/>
    <rect x="8" y="0" width="8" height="40" rx="4" fill="#8d451e"/>
    <rect x="48" y="6" width="8" height="40" rx="4" fill="#8d451e"/>
    <path d="M12 5h42" stroke="#ffd08a" stroke-width="2" opacity=".55"/>
    <path d="M6 9c4-7 12-10 20-7" fill="none" stroke="#f7e0a4" stroke-width="4" stroke-linecap="round"/>
  </g>

  <g transform="translate(151 142)">
    <circle cx="0" cy="0" r="7" fill="none" stroke="#dce1e8" stroke-width="5"/>
    <path d="M0 6v25m0 0c-8 0-14-5-16-12m16 12c8 0 14-5 16-12" fill="none" stroke="#8f98a5" stroke-width="6" stroke-linecap="round"/>
    <path d="M-19 18l6 1-2-6M19 18l-6 1 2-6" fill="none" stroke="#8f98a5" stroke-width="4" stroke-linecap="round" stroke-linejoin="round"/>
  </g>

  <g fill="#3fae4c">
    <ellipse cx="143" cy="126" rx="8" ry="4" transform="rotate(-35 143 126)"/>
    <ellipse cx="151" cy="122" rx="8" ry="4" transform="rotate(25 151 122)"/>
    <ellipse cx="91" cy="133" rx="7" ry="3.5" transform="rotate(-20 91 133)"/>
  </g>
</g>
</svg>